<svg width="31" height="31" viewBox="0 0 31 31" fill="none" xmlns="http://www.w3.org/2000/svg">
<g clip-path="url(#clip0)">
<g filter="url(#filter0_di)">
<path fill-rule="evenodd" clip-rule="evenodd" d="M8.64016 4.10989C8.7732 4.15516 8.97842 4.26081 9.09625 4.33629C9.8183 4.81179 11.8288 7.36654 12.4863 8.64207C12.8625 9.37037 12.9879 9.91001 12.8702 10.31C12.7485 10.7402 12.5471 10.9667 11.6464 11.6874C11.2853 11.978 10.9471 12.2761 10.8939 12.3554C10.7571 12.5516 10.6468 12.9365 10.6468 13.2083C10.6507 13.8384 11.0611 14.9819 11.6008 15.8611C12.0188 16.5441 12.7675 17.4196 13.5086 18.0914C14.3789 18.8839 15.1466 19.4235 16.0132 19.8499C17.1266 20.4009 17.807 20.5405 18.3049 20.3103C18.4303 20.2537 18.5633 20.1782 18.6051 20.1443C18.6431 20.1103 18.9358 19.7556 19.255 19.3631C19.8706 18.5932 20.0113 18.4687 20.4331 18.3254C20.9691 18.1442 21.5163 18.1933 22.0673 18.4725C22.4854 18.6877 23.3975 19.2499 23.9866 19.6574C24.7619 20.1971 26.4189 21.5405 26.6432 21.8085C27.0384 22.2915 27.1069 22.9103 26.8408 23.5935C26.5595 24.3142 25.465 25.6652 24.7011 26.2426C24.0094 26.7633 23.5191 26.9632 22.8731 26.9935C22.341 27.0199 22.1206 26.9746 21.4403 26.6954C16.1044 24.5104 11.844 21.25 8.46152 16.7706C6.69432 14.4309 5.34891 12.0044 4.42916 9.48739C3.89332 8.01944 3.86674 7.38167 4.30754 6.63071C4.49761 6.31374 5.30711 5.5288 5.89618 5.09107C6.87674 4.3665 7.32897 4.09856 7.69003 4.0231C7.93705 3.97026 8.36649 4.01177 8.64016 4.10989Z" fill="url(#paint0_linear)"/>
<path d="M9.23375 4.1275L9.23376 4.12749L9.23111 4.12579C9.1018 4.04295 8.87956 3.9276 8.72265 3.87389C8.56136 3.81631 8.36476 3.7783 8.17825 3.76096C7.99336 3.74377 7.79639 3.7448 7.63831 3.77851C7.41982 3.82427 7.18959 3.92515 6.89762 4.0988C6.60564 4.27247 6.23919 4.52676 5.74761 4.89001L5.74761 4.89L5.74707 4.8904C5.44142 5.11753 5.08338 5.43087 4.77823 5.72667C4.48036 6.0154 4.20728 6.31178 4.09313 6.50215L4.09312 6.50214L4.09194 6.50416C3.85099 6.91464 3.73148 7.30893 3.75234 7.80077C3.77258 8.27821 3.92488 8.83499 4.19431 9.57311L4.19434 9.57319C5.1234 12.1157 6.48139 14.5638 8.26201 16.9212C11.6722 21.4374 15.9691 24.7251 21.3453 26.9266C21.6866 27.0667 21.9303 27.1558 22.1615 27.2038C22.3978 27.2529 22.6098 27.2568 22.8848 27.2432C23.595 27.21 24.1325 26.9836 24.8515 26.4423L24.8519 26.442C25.2565 26.1361 25.7356 25.6369 26.1463 25.1289C26.5543 24.6243 26.9185 24.0819 27.0737 23.6844L27.0738 23.6842C27.3657 22.9345 27.3 22.2164 26.8367 21.6502L26.8367 21.6502L26.8349 21.648C26.7633 21.5624 26.6007 21.4144 26.406 21.2461C26.2044 21.0718 25.9498 20.8601 25.6789 20.6406C25.1383 20.2027 24.5246 19.7273 24.1294 19.4523L24.1288 19.4518C23.5347 19.0408 22.6129 18.4721 22.1817 18.2502L22.1804 18.2495C21.5754 17.9429 20.9587 17.8838 20.3531 18.0885L20.3527 18.0887C20.1225 18.1669 19.9491 18.2476 19.7514 18.4218C19.5674 18.5839 19.365 18.8253 19.0604 19.2062C18.9013 19.4018 18.7491 19.5876 18.6322 19.7285C18.5736 19.7992 18.5244 19.8579 18.4878 19.9006C18.4651 19.9272 18.451 19.9431 18.4435 19.9516C18.4423 19.953 18.4412 19.9541 18.4403 19.9551C18.4368 19.9575 18.4319 19.9607 18.4254 19.9648C18.4095 19.9747 18.3889 19.9869 18.3646 20.0004C18.3159 20.0276 18.2576 20.0574 18.202 20.0825L18.2 20.0834C18.013 20.1698 17.7759 20.1959 17.4393 20.128C17.0991 20.0593 16.6732 19.8976 16.124 19.6258L16.1235 19.6256C15.2822 19.2116 14.5336 18.6866 13.677 17.9066L13.6765 17.9062C12.9488 17.2466 12.217 16.389 11.814 15.7306L11.8138 15.7304C11.5536 15.3065 11.3233 14.8164 11.1581 14.3567C10.9912 13.8922 10.8987 13.4806 10.8968 13.2075C10.8969 13.1013 10.9192 12.9614 10.9592 12.8229C10.9998 12.6822 11.0521 12.5655 11.099 12.4983L11.099 12.4984L11.1015 12.4946C11.1004 12.4963 11.1009 12.4957 11.1037 12.4926C11.1096 12.4862 11.1255 12.4687 11.1575 12.4376C11.1985 12.3977 11.2538 12.3468 11.3204 12.2878C11.4533 12.1701 11.625 12.0256 11.8029 11.8824C12.2514 11.5235 12.5431 11.2744 12.7373 11.0558C12.9418 10.8257 13.04 10.6278 13.1104 10.3793C13.2567 9.88009 13.0888 9.26364 12.7085 8.52752C12.3686 7.86818 11.6898 6.89566 11.0119 6.03454C10.6715 5.60214 10.3278 5.19321 10.0221 4.86101C9.7216 4.53453 9.44245 4.26494 9.23375 4.1275Z" stroke="url(#paint1_linear)" stroke-width="0.5"/>
</g>
</g>
<defs>
<filter id="filter0_di" x="-0.5" y="0.5" width="31.9997" height="32" filterUnits="userSpaceOnUse" color-interpolation-filters="sRGB">
<feFlood flood-opacity="0" result="BackgroundImageFix"/>
<feColorMatrix in="SourceAlpha" type="matrix" values="0 0 0 0 0 0 0 0 0 0 0 0 0 0 0 0 0 0 127 0"/>
<feOffset dy="1"/>
<feGaussianBlur stdDeviation="2"/>
<feColorMatrix type="matrix" values="0 0 0 0 0 0 0 0 0 0 0 0 0 0 0 0 0 0 0.16 0"/>
<feBlend mode="normal" in2="BackgroundImageFix" result="effect1_dropShadow"/>
<feBlend mode="normal" in="SourceGraphic" in2="effect1_dropShadow" result="shape"/>
<feColorMatrix in="SourceAlpha" type="matrix" values="0 0 0 0 0 0 0 0 0 0 0 0 0 0 0 0 0 0 127 0" result="hardAlpha"/>
<feOffset dy="-1"/>
<feGaussianBlur stdDeviation="0.5"/>
<feComposite in2="hardAlpha" operator="arithmetic" k2="-1" k3="1"/>
<feColorMatrix type="matrix" values="0 0 0 0 0 0 0 0 0 0 0 0 0 0 0 0 0 0 0.16 0"/>
<feBlend mode="normal" in2="shape" result="effect2_innerShadow"/>
</filter>
<linearGradient id="paint0_linear" x1="7.35698" y1="5.50938" x2="23.5896" y2="27.899" gradientUnits="userSpaceOnUse">
<stop offset="0.276893" stop-color="white"/>
<stop offset="1" stop-color="#E3E3E3"/>
</linearGradient>
<linearGradient id="paint1_linear" x1="24.0513" y1="29.4938" x2="11.9198" y2="1.7781" gradientUnits="userSpaceOnUse">
<stop stop-color="white" stop-opacity="0.24"/>
<stop offset="1" stop-color="white" stop-opacity="0"/>
</linearGradient>
<clipPath id="clip0">
<path d="M0 0H31V31H0V0Z" fill="white"/>
</clipPath>
</defs>
</svg>
